{
    "asset" : {
        "generator" : "Khronos glTF Blender I/O v3.2.43",
        "version" : "2.0"
    },
    "extensionsUsed" : [
        "KHR_lights_punctual"
    ],
    "extensionsRequired" : [
        "KHR_lights_punctual"
    ],
    "extensions" : {
        "KHR_lights_punctual" : {
            "lights" : [
                {
                    "color" : [
                        0.6139882802963257,
                        0.8584858179092407,
                        1
                    ],
                    "intensity" : 1,
                    "spot" : {
                        "innerConeAngle" : 0.3822328760068223,
                        "outerConeAngle" : 0.4598942697048187
                    },
                    "type" : "spot",
                    "name" : "Point"
                },
                {
                    "color" : [
                        0.9685887694358826,
                        1,
                        0
                    ],
                    "intensity" : 4,
                    "spot" : {
                        "innerConeAngle" : 0.4368524932217319,
                        "outerConeAngle" : 0.9014624953269958
                    },
                    "type" : "spot",
                    "name" : "Point.001"
                },
                {
                    "color" : [
                        0.6139882802963257,
                        0.8584858179092407,
                        1
                    ],
                    "intensity" : 1,
                    "spot" : {
                        "innerConeAngle" : 0.27498238902866134,
                        "outerConeAngle" : 0.5523967146873474
                    },
                    "type" : "spot",
                    "name" : "Point.002"
                },
                {
                    "color" : [
                        0.6139882802963257,
                        0.8584858179092407,
                        1
                    ],
                    "intensity" : 1,
                    "spot" : {
                        "innerConeAngle" : 0.10134592260418884,
                        "outerConeAngle" : 0.5279620885848999
                    },
                    "type" : "spot",
                    "name" : "Point.003"
                }
            ]
        }
    },
    "scene" : 0,
    "scenes" : [
        {
            "name" : "Scene",
            "nodes" : [
                0,
                1,
                2,
                3,
                4,
                5,
                6,
                7
            ]
        }
    ],
    "nodes" : [
        {
            "extensions" : {
                "KHR_lights_punctual" : {
                    "light" : 0
                }
            },
            "name" : "Point",
            "rotation" : [
                -0.022511107847094536,
                0.30680033564567566,
                -0.05018172785639763,
                0.9501834511756897
            ],
            "translation" : [
                5.993476390838623,
                0.3942851424217224,
                7.014206886291504
            ]
        },
        {
            "extensions" : {
                "KHR_lights_punctual" : {
                    "light" : 1
                }
            },
            "name" : "Point.001",
            "rotation" : [
                -0.9900546073913574,
                0.12039190530776978,
                -0.02116250805556774,
                0.06964050978422165
            ],
            "translation" : [
                0.6513115763664246,
                0.2823854684829712,
                -0.9784871935844421
            ]
        },
        {
            "extensions" : {
                "KHR_lights_punctual" : {
                    "light" : 2
                }
            },
            "name" : "Point.002",
            "rotation" : [
                0.10198687762022018,
                -0.18559040129184723,
                -0.06243498995900154,
                0.9753239750862122
            ],
            "translation" : [
                -2.5993459224700928,
                -1.284036636352539,
                7.865832328796387
            ]
        },
        {
            "extensions" : {
                "KHR_lights_punctual" : {
                    "light" : 3
                }
            },
            "name" : "Point.003",
            "rotation" : [
                -0.4993782937526703,
                0.08531726151704788,
                0.18015405535697937,
                0.8431410193443298
            ],
            "translation" : [
                0.4425834119319916,
                8.255632400512695,
                4.222949028015137
            ]
        },
        {
            "mesh" : 0,
            "name" : "Curve",
            "rotation" : [
                0.5430925488471985,
                -0.032794296741485596,
                -0.025221290066838264,
                0.838653028011322
            ],
            "translation" : [
                -0.0038152355700731277,
                0,
                -0.0001262947916984558
            ]
        },
        {
            "mesh" : 1,
            "name" : "Curve.001",
            "rotation" : [
                0.5430925488471985,
                -0.032794296741485596,
                -0.025221290066838264,
                0.838653028011322
            ],
            "translation" : [
                -0.0038152355700731277,
                0,
                -0.0001262947916984558
            ]
        },
        {
            "mesh" : 2,
            "name" : "Curve.002",
            "rotation" : [
                0.7923493981361389,
                -0.01595144532620907,
                -0.02463342249393463,
                0.6093612313270569
            ],
            "translation" : [
                0.007013944908976555,
                -0.050649963319301605,
                -0.21187791228294373
            ]
        },
        {
            "mesh" : 3,
            "name" : "Curve.003",
            "rotation" : [
                0.7923493981361389,
                -0.01595144532620907,
                -0.02463342249393463,
                0.6093612313270569
            ],
            "translation" : [
                0.007013944908976555,
                -0.050649963319301605,
                -0.21187791228294373
            ]
        }
    ],
    "materials" : [
        {
            "alphaCutoff" : 0.5089285969734192,
            "alphaMode" : "MASK",
            "doubleSided" : true,
            "name" : "SVGMat.001",
            "pbrMetallicRoughness" : {
                "baseColorFactor" : [
                    0.05780543014407158,
                    0.3277781009674072,
                    0.5457244515419006,
                    1
                ],
                "metallicFactor" : 0,
                "roughnessFactor" : 0.4000000059604645
            }
        },
        {
            "doubleSided" : true,
            "name" : "SVGMat.002",
            "pbrMetallicRoughness" : {
                "baseColorFactor" : [
                    0.5972017645835876,
                    0.08865558356046677,
                    0.026241222396492958,
                    1
                ],
                "metallicFactor" : 0,
                "roughnessFactor" : 0.4000000059604645
            }
        },
        {
            "doubleSided" : true,
            "name" : "SVGMat.004",
            "pbrMetallicRoughness" : {
                "baseColorFactor" : [
                    0.5972017645835876,
                    0.08865558356046677,
                    0.02518685907125473,
                    1
                ],
                "metallicFactor" : 0,
                "roughnessFactor" : 0.4000000059604645
            }
        },
        {
            "doubleSided" : true,
            "name" : "SVGMat.005",
            "pbrMetallicRoughness" : {
                "baseColorFactor" : [
                    0.05780543014407158,
                    0.3277781009674072,
                    0.5457244515419006,
                    1
                ],
                "metallicFactor" : 0,
                "roughnessFactor" : 0.4000000059604645
            }
        }
    ],
    "meshes" : [
        {
            "name" : "Curve",
            "primitives" : [
                {
                    "attributes" : {
                        "POSITION" : 0,
                        "NORMAL" : 1,
                        "TANGENT" : 2,
                        "TEXCOORD_0" : 3
                    },
                    "indices" : 4,
                    "material" : 0
                }
            ]
        },
        {
            "name" : "Curve.001",
            "primitives" : [
                {
                    "attributes" : {
                        "POSITION" : 5,
                        "NORMAL" : 6,
                        "TANGENT" : 7,
                        "TEXCOORD_0" : 8
                    },
                    "indices" : 9,
                    "material" : 1
                }
            ]
        },
        {
            "name" : "Curve.002",
            "primitives" : [
                {
                    "attributes" : {
                        "POSITION" : 10,
                        "NORMAL" : 11,
                        "TANGENT" : 12,
                        "TEXCOORD_0" : 13
                    },
                    "indices" : 14,
                    "material" : 2
                }
            ]
        },
        {
            "name" : "Curve.003",
            "primitives" : [
                {
                    "attributes" : {
                        "POSITION" : 15,
                        "NORMAL" : 16,
                        "TANGENT" : 17,
                        "TEXCOORD_0" : 18
                    },
                    "indices" : 19,
                    "material" : 3
                }
            ]
        }
    ],
    "accessors" : [
        {
            "bufferView" : 0,
            "componentType" : 5126,
            "count" : 31152,
            "max" : [
                1.1411545276641846,
                0.005673129111528397,
                -0.2880701422691345
            ],
            "min" : [
                0.23178768157958984,
                -0.057296909391880035,
                -0.7804742455482483
            ],
            "type" : "VEC3"
        },
        {
            "bufferView" : 1,
            "componentType" : 5126,
            "count" : 31152,
            "type" : "VEC3"
        },
        {
            "bufferView" : 2,
            "componentType" : 5126,
            "count" : 31152,
            "type" : "VEC4"
        },
        {
            "bufferView" : 3,
            "componentType" : 5126,
            "count" : 31152,
            "type" : "VEC2"
        },
        {
            "bufferView" : 4,
            "componentType" : 5123,
            "count" : 31152,
            "type" : "SCALAR"
        },
        {
            "bufferView" : 5,
            "componentType" : 5126,
            "count" : 14628,
            "max" : [
                1.099618911743164,
                0.00510421022772789,
                -0.35903289914131165
            ],
            "min" : [
                0.36574459075927734,
                -0.052820995450019836,
                -0.5331520438194275
            ],
            "type" : "VEC3"
        },
        {
            "bufferView" : 6,
            "componentType" : 5126,
            "count" : 14628,
            "type" : "VEC3"
        },
        {
            "bufferView" : 7,
            "componentType" : 5126,
            "count" : 14628,
            "type" : "VEC4"
        },
        {
            "bufferView" : 8,
            "componentType" : 5126,
            "count" : 14628,
            "type" : "VEC2"
        },
        {
            "bufferView" : 9,
            "componentType" : 5123,
            "count" : 14628,
            "type" : "SCALAR"
        },
        {
            "bufferView" : 10,
            "componentType" : 5126,
            "count" : 6192,
            "max" : [
                1.0693881511688232,
                0.026903482154011726,
                -0.2658156454563141
            ],
            "min" : [
                0.5114797949790955,
                -0.048122942447662354,
                -0.4432569742202759
            ],
            "type" : "VEC3"
        },
        {
            "bufferView" : 11,
            "componentType" : 5126,
            "count" : 6192,
            "type" : "VEC3"
        },
        {
            "bufferView" : 12,
            "componentType" : 5126,
            "count" : 6192,
            "type" : "VEC4"
        },
        {
            "bufferView" : 13,
            "componentType" : 5126,
            "count" : 6192,
            "type" : "VEC2"
        },
        {
            "bufferView" : 14,
            "componentType" : 5123,
            "count" : 6192,
            "type" : "SCALAR"
        },
        {
            "bufferView" : 15,
            "componentType" : 5126,
            "count" : 10656,
            "max" : [
                0.8744784593582153,
                0.02918788231909275,
                -0.1256476193666458
            ],
            "min" : [
                0.11443497985601425,
                -0.08328593522310257,
                -0.4090469777584076
            ],
            "type" : "VEC3"
        },
        {
            "bufferView" : 16,
            "componentType" : 5126,
            "count" : 10656,
            "type" : "VEC3"
        },
        {
            "bufferView" : 17,
            "componentType" : 5126,
            "count" : 10656,
            "type" : "VEC4"
        },
        {
            "bufferView" : 18,
            "componentType" : 5126,
            "count" : 10656,
            "type" : "VEC2"
        },
        {
            "bufferView" : 19,
            "componentType" : 5123,
            "count" : 10656,
            "type" : "SCALAR"
        }
    ],
    "bufferViews" : [
        {
            "buffer" : 0,
            "byteLength" : 373824,
            "byteOffset" : 0
        },
        {
            "buffer" : 0,
            "byteLength" : 373824,
            "byteOffset" : 373824
        },
        {
            "buffer" : 0,
            "byteLength" : 498432,
            "byteOffset" : 747648
        },
        {
            "buffer" : 0,
            "byteLength" : 249216,
            "byteOffset" : 1246080
        },
        {
            "buffer" : 0,
            "byteLength" : 62304,
            "byteOffset" : 1495296
        },
        {
            "buffer" : 0,
            "byteLength" : 175536,
            "byteOffset" : 1557600
        },
        {
            "buffer" : 0,
            "byteLength" : 175536,
            "byteOffset" : 1733136
        },
        {
            "buffer" : 0,
            "byteLength" : 234048,
            "byteOffset" : 1908672
        },
        {
            "buffer" : 0,
            "byteLength" : 117024,
            "byteOffset" : 2142720
        },
        {
            "buffer" : 0,
            "byteLength" : 29256,
            "byteOffset" : 2259744
        },
        {
            "buffer" : 0,
            "byteLength" : 74304,
            "byteOffset" : 2289000
        },
        {
            "buffer" : 0,
            "byteLength" : 74304,
            "byteOffset" : 2363304
        },
        {
            "buffer" : 0,
            "byteLength" : 99072,
            "byteOffset" : 2437608
        },
        {
            "buffer" : 0,
            "byteLength" : 49536,
            "byteOffset" : 2536680
        },
        {
            "buffer" : 0,
            "byteLength" : 12384,
            "byteOffset" : 2586216
        },
        {
            "buffer" : 0,
            "byteLength" : 127872,
            "byteOffset" : 2598600
        },
        {
            "buffer" : 0,
            "byteLength" : 127872,
            "byteOffset" : 2726472
        },
        {
            "buffer" : 0,
            "byteLength" : 170496,
            "byteOffset" : 2854344
        },
        {
            "buffer" : 0,
            "byteLength" : 85248,
            "byteOffset" : 3024840
        },
        {
            "buffer" : 0,
            "byteLength" : 21312,
            "byteOffset" : 3110088
        }
    ],
    "buffers" : [
        {
            "byteLength" : 3131400,
            "uri" : "data:application/octet-stream;base64,"
        }
    ]
}
